 http://desibbrg.org/images/66952052392581364616.gif 
http://desibbrg.org/images/99996497211713656289.jpg 
http://desibbrg.org/images/29244023313280178306.png 
http://desibbrg.org/images/59400349840625606075.png 
http://desibbrg.org/images/87023231871036591931.png 
http://desibbrg.org/images/28292565697182409560.png 
http://desibbrg.org/images/55914755007494419697.png

Media Info - 
Video
ID : 1
Format : AVC
Format/Info : Advanced Video Codec
Format profile : Main@L3.1
Format settings, CABAC : Yes
Format settings, ReFrames : 4 frames
Codec ID : avc1
Codec ID/Info : Advanced Video Coding
Duration : 2h 26mn
Bit rate mode : Variable
Bit rate : 2 914 Kbps
Width : 1 280 pixels
Height : 588 pixels
Display aspect ratio : 2.2:1
Frame rate mode : Constant
Frame rate : 25.000 fps
Color space : YUV
Chroma subsampling : 4:2:0
Bit depth : 8 bits
Scan type : Progressive
Bits/(Pixel*Frame) : 0.155
Stream size : 2.98 GiB (95%)
Writing library : x264 core 120
Color primaries : BT.709-5, BT.1361, IEC 61966-2-4, SMPTE RP177
Transfer characteristics : BT.709-5, BT.1361
Matrix coefficients : BT.709-5, BT.1361, IEC 61966-2-4 709, SMPTE RP177

Audio
ID : 2
Format : AAC
Format/Info : Advanced Audio Codec
Format profile : LC
Codec ID : 40
Duration : 2h 26mn
Bit rate mode : Variable
Bit rate : 160 Kbps
Maximum bit rate : 252 Kbps
Channel(s) : 2 channels
Channel positions : Front: L R
Sampling rate : 44.1 KHz
Compression mode : Lossy
Stream size : 168 MiB (5%)
Language : English
Encoded date : UTC 2013-03-25 04:37:49
Tagged date : UTC 2013-03-25 05:28:27

Ripper : lottery

Seeding 24x7... Extreme Seeding...


Enjoy!
